<?xml version="1.0" encoding="iso-8859-1"?>
<!-- Uploaded to: SVG Repo, www.svgrepo.com, Generator: SVG Repo Mixer Tools -->
<!DOCTYPE svg PUBLIC "-//W3C//DTD SVG 1.1//EN" "http://www.w3.org/Graphics/SVG/1.1/DTD/svg11.dtd">
<svg fill="#000000" height="800px" width="800px" version="1.1" id="Capa_1" xmlns="http://www.w3.org/2000/svg" xmlns:xlink="http://www.w3.org/1999/xlink" 
	 viewBox="0 0 407.897 407.897" xml:space="preserve">
<path d="M303.949,399.897h-33.981l4.687-43.017c0.239-2.196-1.347-4.171-3.543-4.41l-5.466-0.596l4.335-39.767l4.474,0.487
	c0.147,0.016,0.294,0.023,0.438,0.023c2.015,0,3.748-1.518,3.972-3.566c0.239-2.196-1.347-4.171-3.543-4.41l-4.474-0.487
	l4.701-43.119l4.473,0.487c0.147,0.016,0.294,0.023,0.439,0.023c2.015,0,3.748-1.518,3.972-3.566
	c0.239-2.196-1.347-4.171-3.543-4.41l-4.474-0.487l4.701-43.119l4.473,0.487c0.147,0.016,0.294,0.023,0.439,0.023
	c2.015,0,3.748-1.518,3.972-3.566c0.239-2.196-1.347-4.171-3.543-4.41l-4.473-0.487l4.701-43.119l4.474,0.487
	c0.147,0.016,0.294,0.024,0.438,0.024c2.015,0,3.748-1.518,3.972-3.566c0.239-2.196-1.347-4.171-3.543-4.41l-4.474-0.487
	l4.701-43.119l4.474,0.487c0.148,0.016,0.294,0.023,0.439,0.023c2.015,0,3.748-1.518,3.972-3.566
	c0.239-2.196-1.347-4.171-3.543-4.41l-4.474-0.487l3.793-34.794l4.474,0.487c0.147,0.016,0.294,0.023,0.439,0.023
	c2.015,0,3.748-1.518,3.972-3.566c0.239-2.196-1.347-4.171-3.543-4.41l-21.603-2.356l4.064-37.276l1.72,0.188
	c0.147,0.016,0.294,0.023,0.439,0.023c2.015,0,3.748-1.518,3.972-3.566c0.239-2.196-1.347-4.171-3.543-4.41L193.854,0.022
	c-2.196-0.228-4.17,1.348-4.41,3.543c-0.239,2.196,1.347,4.171,3.543,4.41l1.72,0.188l-4.064,37.275l-21.602-2.354
	c-2.194-0.227-4.17,1.348-4.41,3.543c-0.239,2.196,1.347,4.171,3.543,4.41l4.474,0.487l-3.793,34.794l-4.474-0.487
	c-2.195-0.232-4.17,1.347-4.41,3.543c-0.239,2.196,1.347,4.171,3.543,4.41l4.474,0.487l-4.701,43.119l-4.473-0.487
	c-2.19-0.229-4.17,1.348-4.41,3.543c-0.239,2.196,1.347,4.171,3.543,4.41l4.473,0.487l-4.701,43.119l-4.473-0.487
	c-2.193-0.225-4.17,1.347-4.41,3.543c-0.239,2.196,1.347,4.171,3.543,4.41l4.474,0.487l-4.701,43.119l-4.473-0.487
	c-2.195-0.235-4.17,1.347-4.41,3.543c-0.239,2.196,1.347,4.171,3.543,4.41l4.473,0.487l-4.701,43.119l-4.473-0.487
	c-2.19-0.233-4.17,1.347-4.41,3.543c-0.239,2.196,1.347,4.171,3.543,4.41l4.473,0.487l-4.335,39.767l-5.47-0.597
	c-1.055-0.114-2.112,0.194-2.939,0.858c-0.827,0.665-1.356,1.631-1.471,2.686l-6.382,58.623h-21.172c-2.209,0-4,1.791-4,4
	c0,2.209,1.791,4,4,4h200c2.209,0,4-1.791,4-4C307.949,401.688,306.158,399.897,303.949,399.897z M202.66,9.03l14.84,1.617
	l-2.502,22.947c-0.239,2.196,1.347,4.171,3.543,4.41c0.148,0.016,0.294,0.023,0.439,0.023c2.015,0,3.748-1.518,3.972-3.566
	l2.502-22.947l9.849,1.073l18.665,2.035l-2.502,22.947c-0.239,2.196,1.347,4.171,3.543,4.41c0.147,0.016,0.294,0.023,0.438,0.023
	c2.015,0,3.748-1.518,3.972-3.566l2.502-22.947l14.84,1.617l-4.064,37.276l-33.073-3.605l1.174-10.769
	c0.239-2.196-1.347-4.171-3.543-4.41c-2.205-0.239-4.171,1.348-4.41,3.543l-1.174,10.769l-33.073-3.605L202.66,9.03z
	 M180.601,52.391l108.357,11.814l-3.793,34.794l-11.101-1.21l2.529-23.196c0.239-2.196-1.347-4.171-3.543-4.41
	c-2.199-0.232-4.171,1.347-4.41,3.543l-2.529,23.196l-11.597-1.265l2.528-23.196c0.239-2.196-1.347-4.171-3.543-4.41
	c-2.205-0.229-4.171,1.347-4.41,3.543l-2.528,23.196l-11.598-1.265l2.529-23.195c0.239-2.196-1.347-4.171-3.543-4.41
	c-2.204-0.229-4.171,1.347-4.41,3.543l-2.529,23.196l-11.598-1.265l2.529-23.196c0.239-2.196-1.347-4.171-3.543-4.41
	c-2.202-0.227-4.17,1.348-4.41,3.543l-2.528,23.196l-11.598-1.265l2.529-23.195c0.239-2.196-1.347-4.171-3.543-4.41
	c-2.193-0.229-4.17,1.348-4.41,3.543l-2.529,23.195l-11.1-1.21L180.601,52.391z M175.941,95.138l108.357,11.813l-4.701,43.119
	l-11.1-1.21l2.529-23.196c0.239-2.196-1.347-4.171-3.543-4.41c-2.205-0.228-4.171,1.348-4.41,3.543l-2.529,23.196l-11.598-1.265
	l2.528-23.196c0.239-2.196-1.347-4.171-3.543-4.41c-2.204-0.226-4.17,1.348-4.41,3.543l-2.528,23.196l-11.598-1.265l2.529-23.195
	c0.239-2.196-1.347-4.171-3.543-4.41c-2.202-0.239-4.17,1.348-4.41,3.543l-2.529,23.196l-11.598-1.265l2.529-23.196
	c0.239-2.196-1.347-4.171-3.543-4.41c-2.201-0.237-4.17,1.348-4.41,3.543l-2.529,23.196l-11.598-1.265l2.529-23.195
	c0.239-2.196-1.347-4.171-3.543-4.41c-2.195-0.226-4.17,1.347-4.41,3.543l-2.529,23.195l-11.1-1.21L175.941,95.138z
	 M170.373,146.211l108.357,11.813l-4.701,43.119l-11.1-1.21l2.528-23.196c0.239-2.196-1.347-4.171-3.543-4.41
	c-2.203-0.238-4.171,1.348-4.41,3.543l-2.529,23.196l-11.598-1.265l2.529-23.196c0.239-2.196-1.347-4.171-3.543-4.41
	c-2.202-0.236-4.17,1.348-4.41,3.543l-2.528,23.196l-11.598-1.265l2.529-23.195c0.239-2.196-1.347-4.171-3.543-4.41
	c-2.201-0.235-4.17,1.348-4.41,3.543l-2.529,23.196l-11.598-1.265l2.529-23.196c0.239-2.196-1.347-4.171-3.543-4.41
	c-2.196-0.229-4.17,1.348-4.41,3.543l-2.529,23.196l-11.598-1.265l2.529-23.195c0.239-2.196-1.347-4.171-3.543-4.41
	c-2.19-0.222-4.171,1.347-4.41,3.543l-2.529,23.195l-11.101-1.21L170.373,146.211z M164.805,197.283l108.357,11.813l-4.701,43.119
	l-11.1-1.21l2.529-23.196c0.239-2.196-1.347-4.171-3.543-4.41c-2.202-0.234-4.17,1.347-4.41,3.543l-2.529,23.196l-11.598-1.265
	l2.529-23.196c0.239-2.196-1.347-4.171-3.543-4.41c-2.2-0.232-4.17,1.347-4.41,3.543l-2.529,23.196l-11.598-1.265l2.529-23.195
	c0.239-2.196-1.347-4.171-3.543-4.41c-2.199-0.231-4.171,1.347-4.41,3.543l-2.529,23.196l-11.597-1.265l2.528-23.196
	c0.239-2.196-1.347-4.171-3.543-4.41c-2.19-0.226-4.171,1.347-4.41,3.543l-2.528,23.196l-11.598-1.265l2.529-23.195
	c0.239-2.196-1.347-4.171-3.543-4.41c-2.193-0.232-4.17,1.347-4.41,3.543l-2.529,23.195l-11.1-1.21L164.805,197.283z
	 M159.238,248.355l108.357,11.814l-4.701,43.119l-11.101-1.21l2.529-23.196c0.239-2.196-1.347-4.171-3.543-4.41
	c-2.199-0.23-4.171,1.347-4.41,3.543l-2.529,23.196l-11.598-1.265l2.528-23.196c0.239-2.196-1.347-4.171-3.543-4.41
	c-2.205-0.229-4.171,1.348-4.41,3.543l-2.529,23.196l-11.598-1.265l2.529-23.195c0.239-2.196-1.347-4.171-3.543-4.41
	c-2.204-0.227-4.17,1.348-4.41,3.543l-2.529,23.196l-11.597-1.265l2.529-23.196c0.239-2.196-1.347-4.171-3.543-4.41
	c-2.193-0.223-4.17,1.347-4.41,3.543l-2.529,23.196l-11.598-1.265l2.529-23.195c0.239-2.196-1.347-4.171-3.543-4.41
	c-2.195-0.229-4.17,1.348-4.41,3.543l-2.528,23.195l-11.101-1.21L159.238,248.355z M153.67,299.427l108.357,11.813l-4.335,39.767
	l-11.1-1.21l2.529-23.198c0.239-2.196-1.347-4.171-3.543-4.41c-2.199-0.227-4.171,1.348-4.41,3.543l-2.529,23.198l-11.598-1.265
	l2.53-23.198c0.239-2.196-1.347-4.171-3.543-4.41c-2.205-0.226-4.171,1.348-4.41,3.543l-2.529,23.198l-11.598-1.265l2.53-23.197
	c0.239-2.196-1.347-4.171-3.543-4.41c-2.203-0.239-4.171,1.348-4.41,3.543l-2.529,23.197l-11.598-1.265l2.529-23.197
	c0.239-2.196-1.347-4.171-3.543-4.41c-2.19-0.224-4.17,1.347-4.41,3.543l-2.529,23.198l-11.598-1.265l2.529-23.197
	c0.239-2.196-1.347-4.171-3.543-4.41c-2.193-0.23-4.17,1.348-4.41,3.543l-2.529,23.197l-11.101-1.21L153.67,299.427z
	 M179.862,386.783l-1.431,13.114h-22.133l1.687-15.496c0.319-2.923,1.757-5.547,4.05-7.389c2.291-1.842,5.161-2.682,8.079-2.359
	C176.141,375.312,180.514,380.755,179.862,386.783z M239.502,393.283l-0.721,6.614h-22.124l0.978-8.996
	c0.659-6.025,6.096-10.39,12.129-9.748C235.792,381.812,240.161,387.253,239.502,393.283z M246.829,399.897l0.627-5.746
	c1.138-10.413-6.408-19.811-16.827-20.951c-10.401-1.124-19.807,6.426-20.946,16.834l-1.072,9.863h-22.131l1.337-12.251
	c1.125-10.411-6.425-19.808-16.833-20.946c-5.04-0.552-10.001,0.896-13.959,4.076c-3.958,3.179-6.441,7.71-6.993,12.758
	l-1.781,16.363h-15.083l5.854-53.78l127.246,13.873l-4.348,39.907H246.829z"/>
</svg>